<svg width="242" height="66" viewBox="0 0 242 66" fill="none" xmlns="http://www.w3.org/2000/svg">
<g clip-path="url(#clip0_92_254)">
<path d="M37 38.2579L74 22.295L39.3549 6L0 22.295L7.47816 25.5213V38.2579H12.1517V27.5376L37.0006 38.2579H37ZM39.2333 11.0595L62.7357 22.1137L37.0006 33.2163L11.8882 22.3822L39.2339 11.0595H39.2333Z" fill="white"/>
<path d="M36.2891 55.3794C27.4842 55.3794 20.1778 48.5803 19.6555 39.9011L14.9902 40.1755C15.6591 51.292 25.0149 60 36.2891 60C47.5633 60 56.9184 51.292 57.5879 40.1755L52.9226 39.9011C52.3997 48.5809 45.0939 55.3794 36.2891 55.3794Z" fill="white"/>
</g>
<path d="M241.518 44.5561V49.8957H228.059V44.5561H241.518ZM230.656 39.692H238.007V58.417C238.007 58.8437 238.117 59.1668 238.336 59.3862C238.555 59.5934 238.909 59.697 239.397 59.697C239.616 59.697 239.872 59.6727 240.165 59.6239C240.469 59.5751 240.689 59.5264 240.823 59.4776L241.884 64.6709C241.042 64.9025 240.28 65.0671 239.598 65.1646C238.915 65.2621 238.245 65.3109 237.586 65.3109C235.294 65.3109 233.563 64.7867 232.393 63.7383C231.235 62.6899 230.656 61.1477 230.656 59.1119V39.692Z" fill="white"/>
<path d="M217.417 65.3657C215.198 65.3657 213.296 64.9269 211.711 64.0491C210.139 63.1592 208.932 61.9279 208.091 60.3553C207.262 58.7705 206.847 56.9297 206.847 54.8329C206.847 52.7361 207.262 50.9014 208.091 49.3288C208.932 47.744 210.139 46.5127 211.711 45.635C213.296 44.7451 215.198 44.3001 217.417 44.3001C219.428 44.3001 221.165 44.6658 222.628 45.3973C224.091 46.1165 225.225 47.1345 226.029 48.4511C226.834 49.7555 227.242 51.2976 227.255 53.0775H220.452C220.391 52.3582 220.233 51.7548 219.977 51.2671C219.721 50.7795 219.385 50.4138 218.971 50.17C218.557 49.914 218.075 49.7859 217.526 49.7859C216.88 49.7859 216.32 49.9688 215.844 50.3345C215.369 50.7003 214.997 51.2549 214.729 51.9986C214.473 52.7422 214.345 53.6748 214.345 54.7963C214.345 55.9057 214.473 56.8383 214.729 57.5941C214.997 58.35 215.369 58.9229 215.844 59.313C216.32 59.6909 216.88 59.8799 217.526 59.8799C218.331 59.8799 218.995 59.5812 219.52 58.9839C220.056 58.3865 220.367 57.5515 220.452 56.4787H227.255C227.23 58.2829 226.816 59.8555 226.011 61.1965C225.219 62.5253 224.091 63.5554 222.628 64.2869C221.178 65.0061 219.44 65.3657 217.417 65.3657Z" fill="white"/>
<path d="M195.546 65.3657C193.364 65.3657 191.481 64.9513 189.896 64.1223C188.323 63.2811 187.117 62.0742 186.275 60.5016C185.434 58.929 185.014 57.0394 185.014 54.8329C185.014 52.7239 185.434 50.8831 186.275 49.3105C187.129 47.7257 188.33 46.4944 189.878 45.6167C191.426 44.739 193.255 44.3001 195.364 44.3001C196.912 44.3001 198.308 44.5439 199.551 45.0316C200.807 45.507 201.88 46.2019 202.77 47.1162C203.659 48.0183 204.342 49.1155 204.818 50.4077C205.293 51.6999 205.531 53.1628 205.531 54.7963V56.4787H187.281V52.4557H202.093L198.655 53.2969C198.655 52.4679 198.533 51.773 198.289 51.2123C198.046 50.6393 197.686 50.2065 197.211 49.914C196.735 49.6092 196.144 49.4568 195.437 49.4568C194.73 49.4568 194.138 49.6092 193.663 49.914C193.188 50.2065 192.828 50.6393 192.584 51.2123C192.34 51.773 192.218 52.4679 192.218 53.2969V56.2227C192.218 57.0273 192.359 57.7282 192.639 58.3256C192.932 58.9229 193.34 59.3862 193.864 59.7153C194.388 60.0445 194.998 60.209 195.693 60.209C196.193 60.209 196.644 60.142 197.046 60.0079C197.46 59.8616 197.814 59.6544 198.107 59.3862C198.399 59.118 198.619 58.7949 198.765 58.417H205.458C205.226 59.8311 204.683 61.0624 203.83 62.1108C202.989 63.147 201.867 63.9516 200.465 64.5246C199.076 65.0853 197.436 65.3657 195.546 65.3657Z" fill="white"/>
<path d="M169.653 53.5163V65H162.302V44.5561H169.58V48.4693H169.726C170.177 47.1649 170.915 46.147 171.939 45.4156C172.975 44.6719 174.249 44.3001 175.761 44.3001C177.212 44.3001 178.467 44.6293 179.528 45.2876C180.601 45.9459 181.43 46.8541 182.015 48.0122C182.6 49.1703 182.892 50.493 182.892 51.9803V65H175.541V53.5163C175.541 52.5045 175.285 51.7121 174.773 51.1391C174.261 50.554 173.542 50.2614 172.616 50.2614C172.018 50.2614 171.494 50.3955 171.043 50.6637C170.604 50.9197 170.263 51.2915 170.019 51.7791C169.775 52.2546 169.653 52.8336 169.653 53.5163Z" fill="white"/>
<path d="M146.211 53.5163V65H138.859V44.5561H146.137V48.4693H146.284C146.735 47.1649 147.472 46.147 148.496 45.4156C149.533 44.6719 150.806 44.3001 152.318 44.3001C153.769 44.3001 155.024 44.6293 156.085 45.2876C157.158 45.9459 157.987 46.8541 158.572 48.0122C159.157 49.1703 159.45 50.493 159.45 51.9803V65H152.099V53.5163C152.099 52.5045 151.843 51.7121 151.331 51.1391C150.819 50.554 150.099 50.2614 149.173 50.2614C148.576 50.2614 148.051 50.3955 147.6 50.6637C147.161 50.9197 146.82 51.2915 146.576 51.7791C146.332 52.2546 146.211 52.8336 146.211 53.5163Z" fill="white"/>
<path d="M126.169 65.3657C123.95 65.3657 122.048 64.9269 120.464 64.0491C118.891 63.1592 117.684 61.9279 116.843 60.3553C116.014 58.7705 115.599 56.9297 115.599 54.8329C115.599 52.7361 116.014 50.9014 116.843 49.3288C117.684 47.744 118.891 46.5127 120.464 45.635C122.048 44.7451 123.95 44.3001 126.169 44.3001C128.388 44.3001 130.283 44.7451 131.856 45.635C133.441 46.5127 134.648 47.744 135.477 49.3288C136.318 50.9014 136.738 52.7361 136.738 54.8329C136.738 56.9297 136.318 58.7705 135.477 60.3553C134.648 61.9279 133.441 63.1592 131.856 64.0491C130.283 64.9269 128.388 65.3657 126.169 65.3657ZM126.205 59.8799C126.839 59.8799 127.382 59.6787 127.833 59.2765C128.284 58.8742 128.631 58.2951 128.875 57.5393C129.119 56.7713 129.241 55.8569 129.241 54.7963C129.241 53.7236 129.119 52.8154 128.875 52.0717C128.631 51.3281 128.284 50.7612 127.833 50.3711C127.382 49.981 126.839 49.7859 126.205 49.7859C125.559 49.7859 124.999 49.981 124.523 50.3711C124.06 50.7612 123.706 51.3281 123.463 52.0717C123.219 52.8154 123.097 53.7236 123.097 54.7963C123.097 55.8569 123.219 56.7713 123.463 57.5393C123.706 58.2951 124.06 58.8742 124.523 59.2765C124.999 59.6787 125.559 59.8799 126.205 59.8799Z" fill="white"/>
<path d="M101.336 65.3657C98.8494 65.3657 96.6124 64.8293 94.6253 63.7565C92.6504 62.6838 91.0839 61.1111 89.9258 59.0387C88.7799 56.9541 88.2069 54.4062 88.2069 51.3951C88.2069 48.3596 88.7921 45.7996 89.9624 43.7149C91.1327 41.6303 92.7114 40.0577 94.6985 38.9971C96.6856 37.9243 98.8982 37.3879 101.336 37.3879C103.055 37.3879 104.64 37.6257 106.091 38.1011C107.541 38.5643 108.809 39.2531 109.894 40.1674C110.991 41.0695 111.869 42.1789 112.527 43.4955C113.186 44.7999 113.588 46.2994 113.734 47.9939H106.237C106.188 47.3722 106.048 46.8053 105.816 46.2933C105.597 45.7813 105.286 45.3424 104.884 44.9767C104.494 44.611 104.018 44.3306 103.458 44.1355C102.909 43.9283 102.275 43.8247 101.556 43.8247C100.325 43.8247 99.2761 44.1294 98.4106 44.739C97.5572 45.3363 96.9111 46.2019 96.4722 47.3356C96.0334 48.4571 95.8139 49.8103 95.8139 51.3951C95.8139 53.0531 96.0395 54.4428 96.4905 55.5644C96.9416 56.6859 97.5877 57.5271 98.4289 58.0878C99.2822 58.6486 100.312 58.929 101.519 58.929C102.202 58.929 102.811 58.8437 103.348 58.673C103.884 58.5023 104.354 58.2524 104.756 57.9233C105.158 57.5941 105.481 57.1979 105.725 56.7347C105.981 56.2714 106.152 55.7472 106.237 55.1621H113.734C113.649 56.3202 113.326 57.5027 112.765 58.7096C112.217 59.9043 111.424 61.0075 110.388 62.0194C109.364 63.019 108.096 63.8297 106.584 64.4514C105.085 65.061 103.336 65.3657 101.336 65.3657Z" fill="white"/>
<path d="M230.985 7.55613V12.8957H217.526V7.55613H230.985ZM220.123 2.69202H227.474V21.417C227.474 21.8437 227.584 22.1667 227.803 22.3862C228.023 22.5934 228.376 22.697 228.864 22.697C229.083 22.697 229.339 22.6727 229.632 22.6239C229.937 22.5751 230.156 22.5264 230.29 22.4776L231.351 27.6709C230.51 27.9025 229.748 28.0671 229.065 28.1646C228.382 28.2621 227.712 28.3109 227.053 28.3109C224.762 28.3109 223.03 27.7867 221.86 26.7383C220.702 25.6899 220.123 24.1477 220.123 22.1119V2.69202Z" fill="white"/>
<path d="M202.715 16.5163V28H195.364V7.55612H202.642V11.4693H202.788C203.239 10.1649 203.976 9.14701 205 8.41556C206.037 7.67193 207.311 7.30011 208.822 7.30011C210.273 7.30011 211.529 7.62926 212.589 8.28756C213.662 8.94586 214.491 9.85407 215.076 11.0122C215.661 12.1703 215.954 13.493 215.954 14.9803V28H208.603V16.5163C208.603 15.5045 208.347 14.7121 207.835 14.1391C207.323 13.554 206.604 13.2614 205.677 13.2614C205.08 13.2614 204.555 13.3955 204.104 13.6637C203.666 13.9197 203.324 14.2915 203.08 14.7791C202.837 15.2546 202.715 15.8336 202.715 16.5163Z" fill="white"/>
<path d="M183.331 28.3657C181.149 28.3657 179.266 27.9512 177.681 27.1223C176.108 26.2811 174.901 25.0742 174.06 23.5016C173.219 21.929 172.798 20.0394 172.798 17.8329C172.798 15.7239 173.219 13.8831 174.06 12.3105C174.914 10.7257 176.114 9.49445 177.663 8.61671C179.211 7.73898 181.039 7.30011 183.148 7.30011C184.697 7.30011 186.092 7.54392 187.336 8.03156C188.592 8.50699 189.664 9.20187 190.554 10.1162C191.444 11.0183 192.127 12.1155 192.602 13.4077C193.078 14.6999 193.316 16.1628 193.316 17.7963V19.4787H175.066V15.4557H189.878L186.44 16.2969C186.44 15.4679 186.318 14.773 186.074 14.2123C185.83 13.6393 185.471 13.2065 184.995 12.914C184.52 12.6092 183.929 12.4568 183.222 12.4568C182.514 12.4568 181.923 12.6092 181.448 12.914C180.972 13.2065 180.613 13.6393 180.369 14.2123C180.125 14.773 180.003 15.4679 180.003 16.2969V19.2227C180.003 20.0273 180.143 20.7282 180.424 21.3256C180.716 21.9229 181.125 22.3862 181.649 22.7153C182.173 23.0445 182.783 23.209 183.478 23.209C183.977 23.209 184.428 23.142 184.831 23.0079C185.245 22.8616 185.599 22.6544 185.891 22.3862C186.184 22.118 186.403 21.7949 186.55 21.417H193.242C193.011 22.8311 192.468 24.0624 191.615 25.1108C190.774 26.147 189.652 26.9516 188.25 27.5246C186.86 28.0853 185.221 28.3657 183.331 28.3657Z" fill="white"/>
<path d="M157.548 28.256C156.097 28.256 154.756 27.8781 153.525 27.1223C152.306 26.3542 151.331 25.1961 150.599 23.6479C149.868 22.0997 149.502 20.1492 149.502 17.7963C149.502 15.3216 149.886 13.3162 150.654 11.7802C151.422 10.232 152.416 9.09823 153.635 8.37898C154.854 7.65972 156.134 7.3001 157.475 7.3001C158.487 7.3001 159.37 7.47686 160.126 7.8304C160.894 8.17174 161.534 8.63499 162.046 9.22014C162.57 9.8053 162.961 10.4453 163.217 11.1402H163.326V0.753662H170.677V28H163.399V24.6354H163.217C162.936 25.3302 162.534 25.952 162.01 26.5005C161.485 27.0369 160.852 27.4636 160.108 27.7806C159.364 28.0975 158.511 28.256 157.548 28.256ZM160.254 22.6239C160.925 22.6239 161.504 22.4288 161.991 22.0387C162.479 21.6364 162.851 21.0757 163.107 20.3564C163.375 19.6371 163.509 18.7838 163.509 17.7963C163.509 16.7845 163.375 15.919 163.107 15.1997C162.851 14.4683 162.479 13.9075 161.991 13.5174C161.504 13.1273 160.925 12.9322 160.254 12.9322C159.584 12.9322 159.011 13.1273 158.535 13.5174C158.06 13.9075 157.694 14.4683 157.438 15.1997C157.194 15.919 157.072 16.7845 157.072 17.7963C157.072 18.796 157.194 19.6615 157.438 20.393C157.694 21.1122 158.06 21.6669 158.535 22.057C159.011 22.4349 159.584 22.6239 160.254 22.6239Z" fill="white"/>
<path d="M140.03 19.0764V7.55609H147.381V28H140.396V24.1233H140.176C139.737 25.4156 138.963 26.4335 137.854 27.1771C136.757 27.9086 135.446 28.2682 133.922 28.256C132.496 28.256 131.246 27.9329 130.174 27.2868C129.101 26.6285 128.266 25.7264 127.668 24.5805C127.083 23.4224 126.791 22.0997 126.791 20.6124V7.55609H134.142V19.0764C134.142 20.076 134.398 20.8684 134.91 21.4536C135.422 22.0265 136.141 22.3069 137.067 22.2947C137.677 22.2947 138.201 22.1667 138.64 21.9107C139.079 21.6547 139.42 21.289 139.664 20.8135C139.908 20.3259 140.03 19.7468 140.03 19.0764Z" fill="white"/>
<path d="M124.669 7.55613V12.8957H111.211V7.55613H124.669ZM113.807 2.69202H121.158V21.417C121.158 21.8437 121.268 22.1667 121.488 22.3862C121.707 22.5934 122.061 22.697 122.548 22.697C122.768 22.697 123.024 22.6727 123.316 22.6239C123.621 22.5751 123.84 22.5264 123.975 22.4776L125.035 27.6709C124.194 27.9025 123.432 28.0671 122.749 28.1646C122.067 28.2621 121.396 28.3109 120.738 28.3109C118.446 28.3109 116.715 27.7867 115.545 26.7383C114.387 25.6899 113.807 24.1477 113.807 22.1119V2.69202Z" fill="white"/>
<path d="M99.398 28.3292C97.033 28.3292 94.9666 27.9817 93.199 27.2868C91.4435 26.5798 90.0781 25.4948 89.1029 24.0319C88.1276 22.569 87.6339 20.6977 87.6217 18.4181H94.6436C94.6923 19.247 94.8996 19.948 95.2653 20.521C95.6432 21.0939 96.1674 21.5267 96.8379 21.8193C97.5206 22.1119 98.3374 22.2582 99.2883 22.2582C100.081 22.2582 100.745 22.1606 101.281 21.9656C101.818 21.7705 102.22 21.5023 102.488 21.161C102.769 20.8075 102.909 20.4052 102.909 19.9541C102.909 19.5396 102.775 19.18 102.507 18.8752C102.251 18.5583 101.824 18.2718 101.227 18.0158C100.629 17.7598 99.8246 17.5281 98.8128 17.3209L96.0699 16.7357C93.6683 16.2237 91.7727 15.3521 90.3829 14.1208C89.0054 12.8774 88.3166 11.1889 88.3166 9.05557C88.3166 7.32448 88.7859 5.81283 89.7246 4.52061C90.6633 3.21619 91.9555 2.20436 93.6013 1.48511C95.2592 0.753662 97.1671 0.387939 99.3248 0.387939C101.531 0.387939 103.433 0.759758 105.03 1.50339C106.639 2.23484 107.877 3.27105 108.742 4.61204C109.62 5.94083 110.065 7.49515 110.077 9.275H102.982C102.921 8.38507 102.592 7.6963 101.995 7.20867C101.409 6.70885 100.52 6.45894 99.3248 6.45894C98.569 6.45894 97.9473 6.55037 97.4596 6.73323C96.972 6.9039 96.6124 7.14771 96.3808 7.46467C96.1491 7.78163 96.0333 8.14126 96.0333 8.54355C96.0333 8.97023 96.1552 9.34815 96.399 9.6773C96.6551 9.99426 97.0513 10.2746 97.5876 10.5185C98.1362 10.7501 98.8372 10.9573 99.6906 11.1402L101.921 11.6156C103.421 11.9326 104.707 12.3532 105.78 12.8774C106.865 13.4016 107.749 14.0172 108.431 14.7243C109.126 15.4191 109.632 16.2054 109.949 17.0832C110.278 17.9609 110.443 18.9179 110.443 19.9541C110.443 21.7461 109.998 23.27 109.108 24.5256C108.23 25.7691 106.968 26.7139 105.323 27.36C103.677 28.0061 101.702 28.3292 99.398 28.3292Z" fill="white"/>
<defs>
<clipPath id="clip0_92_254">
<rect width="74" height="54" fill="white" transform="translate(0 6)"/>
</clipPath>
</defs>
</svg>
