<svg width="355" height="74" viewBox="0 0 355 74" fill="none" xmlns="http://www.w3.org/2000/svg">
<g clip-path="url(#clip0_122_2522)">
<path d="M51 44.2053L102 22.3302L54.2459 0L0 22.3302L10.3077 26.7514V44.2053H16.7496V29.5145L51.0008 44.2053H51ZM54.0784 6.93342L86.4736 22.0817L51.0008 37.2964L16.3864 22.4497L54.0792 6.93342H54.0784Z" fill="white"/>
<path d="M50.02 67.6681C37.8835 67.6681 27.8125 58.3507 27.0927 46.4571L20.6621 46.833C21.5841 62.0667 34.4798 74 50.02 74C65.5601 74 78.455 62.0667 79.3778 46.833L72.9473 46.4571C72.2266 58.3515 62.1564 67.6681 50.02 67.6681Z" fill="white"/>
</g>
<path d="M353.543 27.6878V36.5858H331.115V27.6878H353.543ZM335.443 19.5821H347.693V50.7861C347.693 51.4971 347.875 52.0355 348.241 52.4012C348.607 52.7465 349.196 52.9192 350.009 52.9192C350.374 52.9192 350.801 52.8786 351.288 52.7973C351.796 52.716 352.162 52.6348 352.385 52.5535L354.153 61.2077C352.751 61.5937 351.481 61.868 350.344 62.0305C349.206 62.193 348.089 62.2743 346.992 62.2743C343.172 62.2743 340.288 61.4007 338.338 59.6536C336.408 57.9065 335.443 55.3367 335.443 51.9441V19.5821Z" fill="white"/>
<path d="M306.981 62.3048C304.807 62.3048 302.877 61.9493 301.191 61.2383C299.525 60.5069 298.225 59.4099 297.29 57.9472C296.356 56.4845 295.889 54.6257 295.889 52.3707C295.889 50.5017 296.204 48.907 296.833 47.5865C297.463 46.266 298.347 45.1893 299.484 44.3564C300.622 43.5032 301.943 42.8531 303.446 42.4061C304.97 41.9389 306.615 41.6443 308.382 41.5224C310.292 41.3802 311.816 41.2076 312.953 41.0044C314.111 40.8013 314.944 40.5067 315.452 40.1207C315.98 39.7144 316.244 39.1862 316.244 38.5361V38.4142C316.244 37.5407 315.909 36.8703 315.239 36.403C314.568 35.9155 313.705 35.6717 312.649 35.6717C311.47 35.6717 310.516 35.9256 309.784 36.4335C309.053 36.9414 308.606 37.7235 308.443 38.7799H297.229C297.372 36.7078 298.022 34.7981 299.18 33.051C300.358 31.3039 302.075 29.9022 304.33 28.8458C306.605 27.7894 309.439 27.2612 312.831 27.2612C315.249 27.2612 317.423 27.5456 319.353 28.1145C321.283 28.6833 322.928 29.4756 324.289 30.4913C325.65 31.5071 326.686 32.6955 327.397 34.0566C328.129 35.3974 328.494 36.85 328.494 38.4142V61.7563H317.037V56.9416H316.793C316.102 58.2215 315.269 59.2575 314.294 60.0498C313.339 60.8218 312.252 61.3906 311.034 61.7563C309.815 62.122 308.464 62.3048 306.981 62.3048ZM310.942 54.5647C311.877 54.5647 312.75 54.3717 313.563 53.9858C314.396 53.5998 315.066 53.0513 315.574 52.3402C316.102 51.6089 316.366 50.7252 316.366 49.6891V46.8856C316.041 47.0075 315.696 47.1294 315.33 47.2513C314.965 47.3732 314.568 47.4849 314.142 47.5865C313.735 47.6881 313.309 47.7795 312.862 47.8608C312.435 47.942 311.978 48.0233 311.491 48.1045C310.536 48.2467 309.754 48.4905 309.144 48.8359C308.555 49.1609 308.118 49.5672 307.834 50.0548C307.55 50.522 307.407 51.0502 307.407 51.6394C307.407 52.5942 307.732 53.3255 308.382 53.8334C309.053 54.321 309.906 54.5647 310.942 54.5647Z" fill="white"/>
<path d="M270.657 42.6194V61.7563H258.407V16.352H270.17V34.209H270.536C271.308 32.0353 272.587 30.3389 274.375 29.12C276.163 27.8808 278.316 27.2612 280.835 27.2612C283.233 27.2612 285.315 27.8097 287.082 28.9067C288.87 30.0037 290.251 31.5172 291.227 33.4472C292.222 35.3568 292.72 37.561 292.72 40.0597V61.7563H280.47V42.6194C280.47 40.9333 280.043 39.6128 279.19 38.658C278.357 37.6829 277.158 37.1953 275.594 37.1953C274.599 37.1953 273.725 37.4188 272.973 37.8657C272.242 38.2923 271.673 38.9119 271.267 39.7245C270.861 40.5168 270.657 41.4818 270.657 42.6194Z" fill="white"/>
<path d="M238.539 62.3657C234.842 62.3657 231.673 61.6344 229.032 60.1717C226.411 58.6887 224.4 56.6369 222.998 54.0162C221.617 51.3753 220.926 48.3077 220.926 44.8135C220.926 41.3193 221.617 38.2619 222.998 35.6412C224.4 33.0002 226.411 30.9484 229.032 29.4857C231.673 28.0027 234.842 27.2612 238.539 27.2612C241.891 27.2612 244.786 27.8707 247.224 29.0896C249.662 30.2882 251.551 31.9845 252.892 34.1785C254.233 36.3522 254.913 38.9221 254.934 41.8881H243.598C243.496 40.6895 243.232 39.6839 242.805 38.8713C242.379 38.0587 241.82 37.4493 241.129 37.043C240.439 36.6163 239.636 36.403 238.722 36.403C237.645 36.403 236.711 36.7078 235.919 37.3172C235.126 37.9267 234.507 38.851 234.06 40.0902C233.633 41.3294 233.42 42.8835 233.42 44.7525C233.42 46.6012 233.633 48.1553 234.06 49.4149C234.507 50.6744 235.126 51.6292 235.919 52.2793C236.711 52.9091 237.645 53.2239 238.722 53.2239C240.063 53.2239 241.17 52.7262 242.044 51.7308C242.937 50.7353 243.455 49.3438 243.598 47.556H254.934C254.893 50.5627 254.202 53.1833 252.861 55.418C251.541 57.6323 249.662 59.3489 247.224 60.5679C244.806 61.7664 241.912 62.3657 238.539 62.3657Z" fill="white"/>
<path d="M205.141 61.7563V27.6878H217.391V61.7563H205.141ZM211.236 24.2139C209.57 24.2139 208.148 23.6654 206.97 22.5684C205.791 21.4714 205.202 20.1509 205.202 18.607C205.202 17.0427 205.791 15.7222 206.97 14.6455C208.148 13.5485 209.57 13 211.236 13C212.902 13 214.324 13.5485 215.502 14.6455C216.68 15.7222 217.269 17.0325 217.269 18.5765C217.269 20.1408 216.68 21.4714 215.502 22.5684C214.324 23.6654 212.902 24.2139 211.236 24.2139Z" fill="white"/>
<path d="M178.325 42.6195V61.7563H166.075V27.6878H178.203V34.209H178.447C179.199 32.0353 180.428 30.339 182.134 29.1201C183.861 27.8808 185.984 27.2612 188.503 27.2612C190.921 27.2612 193.013 27.8097 194.78 28.9068C196.568 30.0038 197.95 31.5172 198.925 33.4472C199.9 35.3771 200.387 37.5813 200.387 40.0597V61.7563H188.137V42.6195C188.137 40.9333 187.711 39.6128 186.858 38.658C186.004 37.6829 184.806 37.1953 183.262 37.1953C182.266 37.1953 181.393 37.4188 180.641 37.8657C179.91 38.2923 179.341 38.9119 178.935 39.7245C178.528 40.5168 178.325 41.4818 178.325 42.6195Z" fill="white"/>
<path d="M149.194 16.352H161.504V45.4229C161.504 48.8765 160.682 51.873 159.036 54.4123C157.391 56.9314 155.095 58.8817 152.149 60.2631C149.204 61.6242 145.781 62.3048 141.88 62.3048C137.98 62.3048 134.557 61.6242 131.611 60.2631C128.685 58.8817 126.4 56.9314 124.754 54.4123C123.129 51.873 122.317 48.8765 122.317 45.4229V16.352H134.628V44.3868C134.628 45.8089 134.942 47.0684 135.572 48.1655C136.202 49.2422 137.055 50.0954 138.132 50.7252C139.229 51.3346 140.478 51.6393 141.88 51.6393C143.302 51.6393 144.562 51.3346 145.659 50.7252C146.756 50.0954 147.619 49.2422 148.249 48.1655C148.879 47.0684 149.194 45.8089 149.194 44.3868V16.352Z" fill="white"/>
<defs>
<clipPath id="clip0_122_2522">
<rect width="102" height="74" fill="white"/>
</clipPath>
</defs>
</svg>
